<svg xmlns="http://www.w3.org/2000/svg" viewBox="0 0 1920 1080"><style>.st0{fill:#231f20}</style><g id="Layer_2"><path class="st0" d="M862.9 159.5h30v761.7h-30zM980.5 159.5h30v761.7h-30z"/><path transform="rotate(-90 1249.168 367.704)" class="st0" d="M1234.2-57.8h30v851h-30z"/><path transform="rotate(-90 910.694 174.527)" class="st0" d="M895.7 153.1h30V196h-30z"/><path transform="rotate(-90 1029.09 174.527)" class="st0" d="M1014.1 153.9h30v41.2h-30z"/><path class="st0" d="M1098.4 393.5h30v319.3h-30zM1518.3 393.5h30v319.3h-30zM1308.4 393.5h30v319.3h-30zM1203.4 393.5h30v319.3h-30zM1442.5 492.5h30v220.3h-30z"/><path transform="rotate(-90 1605.675 697.78)" class="st0" d="M1590.7 628.8h30v138h-30z"/><path transform="rotate(-90 1592.469 408.49)" class="st0" d="M1577.5 358.3h30v100.3h-30z"/><path transform="rotate(-90 1566.031 492.517)" class="st0" d="M1551 468.8h30v47.4h-30z"/><path transform="rotate(-90 1354.484 423.494)" class="st0" d="M1339.5 397.9h30v51.3h-30z"/><path class="st0" d="M1338.4 408.5h49.9c46.5 0 84.2 24 84.2 53.6v91.1"/><path transform="rotate(-90 1145.187 697.78)" class="st0" d="M1130.2 680.9h30v33.8h-30z"/><path class="st0" d="M625.5 282.8l-14.7 26.1c80.4 45.8 134.6 132.3 134.6 231.5 0 147-119.2 266.2-266.2 266.2S212.9 687.4 212.9 540.4c0-99.2 54.2-185.6 134.6-231.5l-14.7-26.1c-89.5 51-149.9 147.2-149.9 257.6 0 163.6 132.6 296.2 296.2 296.2S775.4 704 775.4 540.4c0-110.4-60.4-206.6-149.9-257.6z"/><path class="st0" d="M464.2 229h30v222.7h-30z"/></g></svg>